<svg width="1200" height="1200" viewBox="0 0 1200 1200" fill="none" xmlns="http://www.w3.org/2000/svg">
<path fill-rule="evenodd" clip-rule="evenodd" d="M569.166 100.952C551.986 102.013 534.807 103.966 517.698 106.821C403.598 125.862 299.631 183.877 223.51 270.98C147.389 358.082 103.825 468.884 100.24 584.506C96.6557 700.128 133.273 813.416 203.852 905.067C274.431 996.718 374.605 1061.06 487.306 1087.13C600.007 1113.21 718.262 1099.39 821.921 1048.05C925.58 996.71 1008.23 911.013 1055.79 805.564C1103.35 700.115 1112.87 581.437 1082.74 469.754L1033.57 538.487L991.489 594.321C991.5 594.528 995.868 678.849 958.507 761.689C921.099 844.632 856.09 912.038 774.555 952.422C693.021 992.807 600.005 1003.67 511.359 983.162C504.739 981.63 498.174 979.93 491.67 978.066V1056.25L413.91 946.468C365.369 920.395 322.496 884.226 288.403 839.955C232.889 767.866 204.087 678.757 206.907 587.813C209.726 496.869 243.993 409.716 303.866 341.204C363.74 272.692 445.518 227.059 535.264 212.082C546.537 210.201 557.848 208.818 569.166 207.928V100.952ZM898.586 203.819C900.464 205.477 902.279 207.07 904.039 208.614L904.064 208.636L904.305 208.848C902.962 207.67 901.587 206.463 900.177 205.221C899.652 204.759 899.121 204.292 898.586 203.819ZM945.087 498.966C943.862 500.489 942.586 502.062 941.249 503.712C942.587 502.062 943.862 500.489 945.087 498.966ZM789.354 607.499C788.34 607.846 787.301 608.2 786.234 608.564C787.302 608.2 788.338 607.846 789.354 607.499ZM690.686 634.823C690.073 634.969 689.468 635.112 688.87 635.253C688.789 635.272 688.708 635.291 688.628 635.31C689.305 635.151 689.99 634.989 690.686 634.823ZM646.124 647.564C644.994 647.953 643.824 648.357 642.599 648.779ZM646.124 647.564C644.993 647.953 643.825 648.356 642.599 648.779ZM825.833 282.084C826.31 282.493 826.779 282.895 827.241 283.29C826.994 283.078 826.744 282.864 826.492 282.649L825.833 282.084ZM712.461 561.838C711.838 562.014 711.214 562.19 710.584 562.368C711.212 562.191 711.84 562.013 712.461 561.838ZM446.199 867.522C446.281 866.354 446.359 865.239 446.435 864.168Z" fill="#0B1157"/>
<path d="M899.339 204.484L899.738 204.835L899.883 204.963L900.01 205.075L900.609 205.602L901.598 206.471C902.432 207.204 903.254 207.925 904.064 208.636L904.305 208.848L904.344 208.882L904.36 208.896C920.882 223.398 932.59 233.674 946.489 253.071C962.85 275.904 970.266 290.404 978.573 317.237C985.922 340.98 988.453 354.885 988.156 379.737C987.978 394.633 987.546 403.509 984.406 418.071C980.207 437.544 976.087 448.724 966.906 466.404C958.733 482.142 951.949 490.511 941.249 503.713L941.174 503.805L941.117 503.876L940.318 504.861L939.406 505.987C933.349 513.469 928.134 519.584 922.88 525.194C918.906 529.438 914.908 533.393 910.507 537.434L852.94 491.119C854.03 489.926 855.056 488.755 856.055 487.568C859.024 484.039 861.755 480.375 865.238 475.62C866.047 474.516 866.829 473.455 867.586 472.427C875.303 461.951 880.443 454.972 885.238 441.87C889.656 429.797 890.851 422.414 891.666 409.584C892.4 398.036 891.978 391.401 889.999 380C887.325 364.588 884.133 356.048 877.083 342.084C870.228 328.506 864.836 321.602 854.999 310C845.792 299.14 839.189 293.498 829.181 284.948L829.156 284.926L829.146 284.918L828.697 284.533L828.232 284.136C827.663 283.65 827.084 283.155 826.492 282.649L825.833 282.084C814.695 272.532 796.117 259.116 796.051 259.068C777.714 248.523 758.659 239.533 739.083 232.132C685.03 211.696 627.007 203.378 569.166 207.928V100.952C649.758 95.9713 730.389 110.591 804.11 143.558C807.557 145.099 810.989 146.681 814.405 148.302C826.218 153.91 837.843 159.997 849.249 166.556C849.292 166.585 880.1 187.472 897.739 203.071C898.278 203.547 898.811 204.018 899.339 204.484Z" fill="url(#paint0_linear_39_220)"/>
<path fill-rule="evenodd" clip-rule="evenodd" d="M637.123 584.388L661.153 642.605C654.834 644.556 649.614 646.358 642.594 648.781L641.193 649.264L640.776 649.408L639.823 649.737L638.683 650.129L637.7 650.468L637.552 650.519C629.424 653.318 624.222 655.109 615.656 658.487C604.268 662.979 597.884 665.568 586.906 670.987C578.616 675.08 574.039 677.543 566.073 682.237C555.847 688.263 550.187 691.828 540.656 698.904C531.473 705.721 526.493 709.823 518.157 717.654C508.758 726.482 503.807 731.828 495.657 741.82C487.694 751.582 483.37 757.257 476.907 768.07C469.064 781.191 465.645 789.188 460.24 803.487C454.613 818.373 451.787 826.987 448.99 842.653C447.257 852.359 446.852 858.162 446.199 867.522L446.199 867.532L446.073 869.32C445.333 879.875 445.259 885.822 445.24 896.403C445.22 907.635 445.489 913.936 446.073 925.153C446.642 936.071 448.157 953.07 448.157 953.07C448.157 953.07 442.217 943.094 438.99 936.403C435.269 928.69 433.613 924.129 430.705 916.118L430.657 915.987C428.145 909.07 426.801 905.157 424.823 898.07L424.644 897.427L424.64 897.412C423.489 893.29 422.787 890.779 421.907 886.403C420.827 881.039 420.481 877.859 419.913 872.641L419.911 872.622L419.823 871.82C419.01 864.363 418.82 860.15 418.573 852.653C418.523 851.117 418.473 849.716 418.426 848.396L418.425 848.362C418.238 843.133 418.096 839.166 418.157 833.07C418.236 825.096 418.425 820.608 418.99 812.653C419.557 804.669 421.476 792.324 421.49 792.237C421.49 792.237 424.589 779.737 426.907 771.82C427.11 771.124 427.306 770.457 427.493 769.814L427.499 769.796C429.253 763.788 430.402 759.852 432.74 753.487C435.355 746.367 437.007 742.432 440.24 735.57C444.585 726.349 447.304 721.277 452.74 712.654C457.532 705.053 460.58 701.013 466.073 693.904C471.793 686.502 475.133 682.432 481.49 675.57C494.494 661.534 502.93 654.658 518.157 643.07C526.526 636.701 531.352 633.276 540.24 627.654C549.723 621.655 555.226 618.55 565.24 613.487C572.846 609.641 577.954 607.47 584.683 604.61C585.263 604.363 585.854 604.112 586.461 603.853C586.932 603.653 587.412 603.449 587.901 603.239C588.656 602.917 589.434 602.584 590.24 602.237L591.261 601.798L591.965 601.494L592.949 601.07L593.095 601.007C602.048 597.15 607.869 594.642 617.74 590.987C619.054 590.5 620.3 590.046 621.493 589.617C627.255 587.548 631.809 586.072 637.123 584.388Z" fill="url(#paint1_linear_39_220)"/>
<path fill-rule="evenodd" clip-rule="evenodd" d="M661.153 642.605L637.123 584.388C638.031 584.1 638.962 583.807 639.924 583.503L640.048 583.463C640.674 583.266 641.314 583.064 641.97 582.856C642.484 582.694 643.009 582.528 643.545 582.358C644.098 582.183 644.662 582.004 645.24 581.82C652.905 579.382 658.191 577.813 664.527 575.933L664.547 575.927L664.556 575.924L664.582 575.917L664.61 575.908L664.62 575.906L664.662 575.894C667.125 575.163 669.751 574.383 672.74 573.487C683.145 570.367 688.983 568.629 699.406 565.57C703.667 564.321 707.196 563.324 710.568 562.372L710.584 562.368L710.601 562.363L710.613 562.359C715.636 560.942 720.34 559.614 726.666 557.67C736.475 554.657 741.967 552.931 751.666 549.583C754.354 548.656 756.809 547.828 759.121 547.048C768.113 544.014 774.953 541.707 785 537.083C796.883 531.614 803.312 527.971 814.405 521.037C815.817 520.154 817.167 519.315 818.466 518.508C829.252 511.811 836.528 507.293 846.488 497.704C848.964 495.319 851.049 493.188 852.94 491.119L910.507 537.434C905.983 541.588 901.032 545.831 895.239 550.57C872.146 569.467 856.729 578.503 829.823 591.404C813.276 599.338 803.322 602.734 786.234 608.564L786.226 608.567L785.24 608.904C770.3 614.002 759.471 616.744 747.141 619.867L747.121 619.872L747.108 619.875L747.094 619.879C740.969 621.43 734.466 623.078 726.906 625.154C723.738 626.024 720.982 626.788 718.394 627.506L718.372 627.512C712.204 629.223 706.987 630.669 699.406 632.654C696.192 633.495 693.354 634.19 690.686 634.823C690.073 634.969 689.468 635.112 688.87 635.253C688.074 635.44 687.284 635.624 686.505 635.806C681.178 637.05 676.099 638.236 669.406 640.154C666.359 641.027 663.669 641.827 661.153 642.605Z" fill="url(#paint2_linear_39_220)"/>
<defs>
<linearGradient id="paint0_linear_39_220" x1="778.673" y1="100" x2="778.673" y2="537.434" gradientUnits="userSpaceOnUse">
<stop offset="0.2" stop-color="#0B1157"/>
<stop offset="0.8" stop-color="#8313FC"/>
</linearGradient>
<linearGradient id="paint1_linear_39_220" x1="539.648" y1="584.388" x2="539.648" y2="953.07" gradientUnits="userSpaceOnUse">
<stop offset="0.15" stop-color="#4E49FE"/>
<stop offset="0.6" stop-color="#3DEEFE"/>
</linearGradient>
<linearGradient id="paint2_linear_39_220" x1="773.815" y1="491.119" x2="773.815" y2="642.605" gradientUnits="userSpaceOnUse">
<stop offset="0.2" stop-color="#8313FC"/>
<stop offset="0.8" stop-color="#4E49FE"/>
</linearGradient>
</defs>
</svg>
